<svg width="16.000000" height="17.000000" viewBox="0 0 16 17" fill="none" xmlns="http://www.w3.org/2000/svg" xmlns:xlink="http://www.w3.org/1999/xlink">
	<desc>
			Created with Pixso.
	</desc>
	<defs/>
	<path id="Path 3414" d="M15.2527 7.09683C15.1738 6.41663 14.8484 5.78549 14.3345 5.3158C13.8206 4.8461 13.1514 4.56824 12.446 4.53159L12.446 4.33163C12.4465 3.76273 12.3311 3.19937 12.1064 2.67377C11.8816 2.14819 11.5518 1.67081 11.136 1.2691C10.7209 0.866211 10.2278 0.546722 9.68506 0.328918C9.14233 0.111115 8.56055 -0.000671387 7.9729 0C6.78711 0.000427246 5.6499 0.457001 4.81128 1.26941C3.9729 2.08182 3.50146 3.18359 3.50098 4.33252L3.50098 4.5347C2.80493 4.58261 2.14795 4.86536 1.64478 5.33371C1.14136 5.80206 0.823486 6.42645 0.746094 7.09839L0 13.682C0.00366211 14.5648 0.368896 15.41 1.01514 16.0321C1.66162 16.6542 2.53662 17.0023 3.448 17L12.5522 17C13.4634 17.0023 14.3384 16.6542 14.9849 16.0321C15.6311 15.41 15.9963 14.5648 16 13.682L15.2527 7.09683ZM4.81445 4.3396C4.81421 3.93774 4.89575 3.53983 5.05444 3.16858C5.21313 2.7973 5.4458 2.45996 5.73901 2.17581C6.03223 1.89163 6.38037 1.66614 6.76343 1.51233C7.14673 1.35855 7.55737 1.27948 7.97217 1.27948C8.38721 1.27908 8.79785 1.35803 9.18115 1.51187C9.56445 1.66568 9.9126 1.89124 10.2058 2.17569C10.4995 2.45956 10.7324 2.79684 10.8914 3.16818C11.0503 3.53952 11.1321 3.93762 11.1316 4.3396L11.1316 4.52521L4.81445 4.52521L4.81445 4.3396ZM5.4375 8.8403C5.33325 8.84039 5.22998 8.82059 5.13354 8.78201C5.03735 8.74341 4.94971 8.68677 4.87622 8.61536C4.80249 8.54398 4.74414 8.45923 4.7041 8.36594C4.66431 8.27264 4.64404 8.17264 4.64404 8.07169C4.64404 7.9707 4.66431 7.87073 4.7041 7.77744C4.74414 7.68411 4.80249 7.5993 4.87622 7.52789C4.94971 7.45651 5.03735 7.39996 5.13354 7.36136C5.22998 7.32278 5.33325 7.30298 5.4375 7.30307C5.54175 7.30286 5.64526 7.32254 5.7417 7.36108C5.83813 7.3996 5.92578 7.45615 5.99976 7.52753C6.07373 7.59891 6.13232 7.68369 6.17236 7.77704C6.2124 7.87039 6.23315 7.97058 6.23315 8.07169C6.23315 8.17279 6.2124 8.27286 6.17236 8.36624C6.13232 8.45959 6.07373 8.54437 5.99976 8.61575C5.92578 8.68713 5.83813 8.74368 5.7417 8.7822C5.64526 8.82071 5.54175 8.84052 5.4375 8.8403ZM10.5645 8.8403C10.46 8.84052 10.3567 8.82071 10.2603 8.7822C10.1636 8.74368 10.0759 8.68713 10.0022 8.61575C9.92822 8.54437 9.86938 8.45959 9.82935 8.36624C9.78931 8.27286 9.7688 8.17279 9.76855 8.07169C9.7688 7.97058 9.78931 7.87039 9.82935 7.77704C9.86938 7.68369 9.92822 7.59891 10.0022 7.52753C10.0759 7.45615 10.1636 7.3996 10.2603 7.36108C10.3567 7.32254 10.46 7.30286 10.5645 7.30307C10.6687 7.30298 10.7717 7.32278 10.8679 7.36136C10.9644 7.39996 11.052 7.45651 11.1257 7.52789C11.1995 7.5993 11.2578 7.68411 11.2976 7.77744C11.3374 7.87073 11.3579 7.9707 11.3577 8.07169C11.3579 8.17264 11.3374 8.27264 11.2976 8.36594C11.2578 8.45923 11.1995 8.54398 11.1257 8.61536C11.052 8.68677 10.9644 8.74341 10.8679 8.78201C10.7717 8.82059 10.6687 8.84039 10.5645 8.8403Z" fill="#FFFFFF" fill-opacity="1.000000" fill-rule="nonzero"/>
</svg>
